<svg xmlns="http://www.w3.org/2000/svg" viewBox="0 0 64 64" fill="none">
  <rect x="1" y="1" width="62" height="62" rx="15" fill="#111113" stroke="#3b3b3f"/>
  <path d="M17 30.5v6c0 2.2 1.8 4 4 4h4l2.2 9h5.4l-2.2-9h3.1c5.7 0 10.3 4.1 14.5 7V19c-4.2 2.9-8.8 7-14.5 7H21a4 4 0 0 0-4 4.5Z" fill="url(#g)" stroke="#f3f3f1" stroke-width="1.4" stroke-linejoin="round"/>
  <path d="M48 25.5c2.4 2 3.7 4.8 3.7 7.5S50.4 38.5 48 40.5" stroke="#f3f3f1" stroke-width="2.5" stroke-linecap="round"/>
  <path d="M52 21c3.7 3.2 5.7 7.4 5.7 12S55.7 41.8 52 45" stroke="#8d8d91" stroke-width="2" stroke-linecap="round"/>
  <defs><linearGradient id="g" x1="18" y1="22" x2="45" y2="49" gradientUnits="userSpaceOnUse"><stop stop-color="#f7f7f5"/><stop offset=".42" stop-color="#8b8b90"/><stop offset="1" stop-color="#242427"/></linearGradient></defs>
</svg>
